/* XPM */
static char *_6c867e00f504f5efbbb37ce291bf59c8qz48VnoqlEJy07e[] = {
/* columns rows colors chars-per-pixel */
"64 64 2 1 ",
"  c gray27",
". c #B2B2B2",
/* pixels */
"                                                                ",
"                                                                ",
"                                                                ",
"   .......................... ........................ ......   ",
"   .......................... ........................ ......   ",
"   .......................... ........................ ......   ",
"   .......................... ........................ ......   ",
"   .......................... ........................ ......   ",
"   .......................... ........................ ......   ",
"   .......................... ........................ ......   ",
"   .......................... ........................ ......   ",
"   .......................... ........................ ......   ",
"   .......................... ........................ ......   ",
"   .......................... ........................ ......   ",
"   .......................... ........................ ......   ",
"   .......................... ........................ ......   ",
"   .......................... ........................ ......   ",
"   .......................... ........................ ......   ",
"                                                                ",
"   ....... .............. ......................... .........   ",
"   ....... .............. ......................... .........   ",
"   ....... .............. ......................... .........   ",
"   ....... .............. ......................... .........   ",
"   ....... .............. ......................... .........   ",
"   ....... .............. ......................... .........   ",
"   ....... .............. ......................... .........   ",
"                          ......................... .........   ",
"   ...................... ......................... .........   ",
"   ...................... ......................... .........   ",
"   ...................... ......................... .........   ",
"   ...................... .........................             ",
"   ......................                           .........   ",
"   ...................... ................. .................   ",
"   ...................... ................. .................   ",
"   ...................... ................. .................   ",
"   ...................... ................. .................   ",
"   ...................... ................. .................   ",
"                          ................. .................   ",
"   ......... ............ ................. .................   ",
"   ......... ............ ................. .................   ",
"   ......... ............ .................                     ",
"   ......... ............ ................. ...... ..........   ",
"   ......... ............                   ...... ..........   ",
"   ......... ............ ... .................... ..........   ",
"   ......... ............ ... .................... ..........   ",
"   ......... ............ ... .................... ..........   ",
"   ......... ............ ... .................... ..........   ",
"   .........                   ................... ..........   ",
"   ......... ................. ................... ..........   ",
"   ......... ................. ................... ..........   ",
"   ......... ................. ................... ..........   ",
"   ......... ................. ................... ..........   ",
"   ......... ................. ................... ..........   ",
"   ......... ................. ................... ..........   ",
"             .................                                  ",
"   ......... ................. ......... ............... ....   ",
"   ......... ................. ......... ............... ....   ",
"   .........                   ......... ............... ....   ",
"   ......... ........................... ............... ....   ",
"   ......... ........................... ............... ....   ",
"   ......... ........................... ............... ....   ",
"                                                                ",
"                                                                ",
"                                                                "
};
